<?xml version="1.0" standalone="no"?>
<!DOCTYPE svg PUBLIC "-//W3C//DTD SVG 20010904//EN"
 "http://www.w3.org/TR/2001/REC-SVG-20010904/DTD/svg10.dtd">
<svg version="1.0" xmlns="http://www.w3.org/2000/svg"
 width="800.000000pt" height="800.000000pt" viewBox="0 0 800.000000 800.000000"
 preserveAspectRatio="xMidYMid meet">
<metadata>
Created by potrace 1.15, written by Peter Selinger 2001-2017
</metadata>
<g transform="translate(0.000000,800.000000) scale(0.100000,-0.100000)"
fill="#000000" stroke="none">
<path d="M1 7543 c1 -252 4 -447 6 -433 70 425 407 781 823 870 l85 19 -457 0
-458 1 1 -457z"/>
<path d="M7170 7981 c188 -40 352 -127 494 -262 172 -163 270 -333 316 -549
l19 -85 0 458 1 457 -457 -1 -458 0 85 -18z"/>
<path d="M0 1655 l0 -1655 4000 0 4000 0 0 1655 0 1655 -1137 0 -1138 0 -142
-37 c-79 -20 -143 -40 -143 -43 0 -4 12 -12 26 -18 14 -7 22 -17 19 -22 -3 -6
-2 -10 2 -10 8 0 39 -25 117 -98 22 -20 61 -63 87 -94 26 -32 59 -70 73 -85
14 -15 26 -31 26 -35 0 -4 19 -38 43 -75 114 -181 190 -423 191 -613 0 -120
-17 -169 -76 -213 -74 -55 36 -52 -1998 -52 -2053 0 -1941 -3 -2014 57 -51 42
-67 79 -73 167 -12 177 63 456 175 649 23 41 42 76 42 78 0 15 158 209 211
259 35 33 63 63 62 67 -2 3 18 19 42 35 25 15 45 30 45 33 0 3 -37 16 -82 28
l-83 22 -1137 0 -1138 0 0 -1655z"/>
</g>
</svg>
