<?xml version="1.0" standalone="no"?>
<!DOCTYPE svg PUBLIC "-//W3C//DTD SVG 20010904//EN"
 "http://www.w3.org/TR/2001/REC-SVG-20010904/DTD/svg10.dtd">
<svg version="1.0" xmlns="http://www.w3.org/2000/svg"
 width="2100.000000pt" height="1500.000000pt" viewBox="0 0 2100.000000 1500.000000"
 preserveAspectRatio="xMidYMid meet">
<metadata>
Created by potrace 1.15, written by Peter Selinger 2001-2017
</metadata>
<g transform="translate(0.000000,1500.000000) scale(0.100000,-0.100000)"
fill="#000000" stroke="none">
<path d="M0 7500 l0 -7500 10500 0 10500 0 0 7500 0 7500 -10500 0 -10500 0 0
-7500z m13665 3981 c206 -43 365 -130 521 -285 150 -150 230 -286 287 -484
l22 -77 3 -1912 2 -1913 -1137 0 -1138 0 -142 -37 c-79 -20 -143 -40 -143 -43
0 -4 12 -12 26 -18 14 -7 22 -17 19 -22 -3 -6 -2 -10 2 -10 8 0 39 -25 117
-98 22 -20 61 -63 87 -94 26 -32 59 -70 73 -85 14 -15 26 -31 26 -35 0 -4 19
-38 43 -75 114 -181 190 -423 191 -613 0 -120 -17 -169 -76 -213 -74 -55 36
-52 -1998 -52 -2053 0 -1941 -3 -2014 57 -51 42 -67 79 -73 167 -12 177 63
456 175 649 23 41 42 76 42 78 0 15 158 209 211 259 35 33 63 63 62 67 -2 3
18 19 42 35 25 15 45 30 45 33 0 3 -37 16 -82 28 l-83 22 -1138 0 -1137 0 2
1913 3 1912 22 75 c116 394 423 689 803 770 81 18 226 19 3165 19 2969 1 3083
0 3170 -18z"/>
</g>
</svg>
